<svg width="306" height="292" viewBox="0 0 306 292" fill="none" xmlns="http://www.w3.org/2000/svg">
<path d="M189.753 80.9332H176.62V86.8332C172.373 84.4212 167.512 83.0546 162.343 83.0546H42.164C25.6507 83.0546 12.2387 97.0359 12.2387 114.184V187.575C12.2387 204.752 25.6507 218.733 42.164 218.733H145.353V231.435H42.164C18.9173 231.435 0 211.757 0 187.575V114.184C0 90.0012 18.9173 70.3532 42.164 70.3532H162.343C172.793 70.3532 182.377 74.3359 189.753 80.9332Z" fill="#F05B83"/>
<path d="M209.146 114.736H182.042V86.5428H209.146V114.736Z" fill="#F05B83"/>
<path d="M192.268 120.375H204.479V187.575H192.268V120.375Z" fill="#F05B83"/>
<path d="M162.335 291.795H42.1626C19.0146 291.795 0.18396 272.207 0.18396 248.13V183.269H12.048V248.13C12.048 265.402 25.5573 279.454 42.1626 279.454H162.335C178.94 279.454 192.449 265.402 192.449 248.13V183.269C192.449 165.995 178.94 151.944 162.335 151.944H73.2213V139.602H162.335C185.481 139.602 204.312 159.191 204.312 183.269V248.13C204.312 272.207 185.481 291.795 162.335 291.795Z" fill="#F05B83"/>
<path d="M154.195 61.7148H126.615V33.0255H154.195V61.7148Z" fill="#F05B83"/>
<path d="M245.549 137.469H220.04V110.935H245.549V137.469Z" fill="#F05B83"/>
<path d="M204.846 59.5615H179.336V33.0269H204.846V59.5615Z" fill="#F05B83"/>
<path d="M277.804 92.7014H260.567V74.7694H277.804V92.7014Z" fill="#F05B83"/>
<path d="M235.157 74.7694H223.156V62.2854H235.157V74.7694Z" fill="#F05B83"/>
<path d="M267.497 44.5374H258.872V35.5653H267.497V44.5374Z" fill="#F05B83"/>
<path d="M297.512 54.5347H292.363V49.1787H297.512V54.5347Z" fill="#F05B83"/>
<path d="M305.143 15.4321H301.447V11.5868H305.143V15.4321Z" fill="#F05B83"/>
<path d="M270.119 5.56812H264.766V0.000121904H270.119V5.56812Z" fill="#F05B83"/>
<path d="M232.915 22.1628H222.023V10.8322H232.915V22.1628Z" fill="#F05B83"/>
</svg>
